<svg version="1.1" id="Layer_1" xmlns="http://www.w3.org/2000/svg" xmlns:xlink="http://www.w3.org/1999/xlink" x="0px" y="0px"
	 width="100%" viewBox="0 0 300 300" enable-background="new 0 0 300 300" xml:space="preserve">
<path fill="#000000" opacity="1.000000" stroke="none" 
	d="
M202.000000,301.000000 
	C134.666672,301.000000 67.833359,301.000000 1.000027,301.000000 
	C1.000018,201.000031 1.000018,101.000061 1.000009,1.000067 
	C100.999947,1.000045 200.999893,1.000045 300.999878,1.000022 
	C300.999939,100.999939 300.999939,200.999878 300.999969,300.999908 
	C268.166656,301.000000 235.333328,301.000000 202.000000,301.000000 
M132.076614,79.886749 
	C124.050247,79.646423 116.023872,79.406097 107.070107,79.023293 
	C93.796494,79.015549 80.522491,79.062508 67.249504,78.967407 
	C63.157555,78.938080 60.985954,80.566551 60.998890,84.786102 
	C61.061436,105.190666 61.110607,125.595284 61.017319,146.926758 
	C61.067493,160.948822 61.117668,174.970901 61.019703,189.921082 
	C61.013355,195.720551 61.001957,201.520020 61.001823,207.319489 
	C61.001602,216.610229 61.497204,217.075623 71.629639,216.904617 
	C72.111740,216.838959 72.593834,216.773315 73.997505,216.819290 
	C82.662964,216.750626 91.328423,216.681961 100.915291,216.798889 
	C108.939949,216.844498 116.964600,216.890106 125.638390,217.167648 
	C126.779984,217.248871 127.921577,217.330093 129.775955,217.786255 
	C135.849808,219.795731 141.923645,221.805222 148.872833,223.974945 
	C155.866226,225.525940 160.851395,220.121735 167.801575,218.761139 
	C172.865402,218.046005 177.929230,217.330872 183.914124,216.795151 
	C189.275040,216.734787 194.635941,216.674408 200.917908,216.798950 
	C212.238693,216.811157 223.559753,216.783905 234.880142,216.856506 
	C238.975891,216.882767 241.050461,215.200928 241.025604,210.923080 
	C240.915482,191.947861 240.891449,172.972137 240.974350,153.068771 
	C240.927795,144.712494 240.881241,136.356201 240.976456,127.072128 
	C240.929565,119.047592 240.882675,111.023048 240.975754,102.070854 
	C240.983490,96.346107 241.003311,90.621338 240.994354,84.896614 
	C240.989136,81.559372 239.936951,79.096634 235.075607,79.024544 
	C230.049927,79.071152 225.024246,79.117752 219.078552,79.024117 
	C214.718460,79.071159 210.358368,79.118202 205.075592,79.023804 
	C200.383270,79.070992 195.690948,79.118179 190.074051,79.024109 
	C185.050797,79.162201 180.027542,79.300293 174.187927,79.338844 
	C165.778275,80.029900 157.709305,81.761261 150.980591,87.235260 
	C149.529770,86.262955 148.318512,85.451195 146.664642,84.132576 
	C142.103775,82.791542 137.542923,81.450516 132.076614,79.886749 
z"/>
<path fill="#24A3E3" opacity="1.000000" stroke="none" 
	d="
M182.993073,216.615753 
	C177.929230,217.330872 172.865402,218.046005 167.425629,218.397217 
	C167.700134,216.521835 168.152451,214.882385 169.032837,213.519455 
	C175.261749,203.876587 181.740631,194.391083 187.794098,184.640793 
	C190.540054,180.217865 192.497986,175.305664 194.819229,170.434677 
	C194.825058,170.253937 195.073242,169.990829 195.249115,169.843918 
	C195.646423,169.483582 195.836212,169.244995 196.160370,168.692169 
	C199.683304,165.477615 203.056778,162.570908 206.393784,159.622910 
	C213.653809,153.209229 220.281906,146.511032 216.998627,135.175446 
	C218.549149,133.439392 220.089478,132.134705 221.171951,130.522598 
	C226.598053,122.441612 231.858841,114.249496 237.299606,106.178612 
	C238.159210,104.903450 239.641434,104.048012 240.835785,102.998520 
	C240.882675,111.023048 240.929565,119.047592 240.578644,127.618034 
	C238.951279,129.447678 237.503738,130.586212 236.533585,132.042740 
	C233.768066,136.194672 231.267471,140.522186 228.537247,144.698654 
	C215.701508,164.333694 202.761185,183.900772 190.011688,203.591492 
	C187.339951,207.717819 185.315689,212.263382 182.993073,216.615753 
z"/>
<path fill="#2B93E7" opacity="1.000000" stroke="none" 
	d="
M240.836273,153.996597 
	C240.891449,172.972137 240.915482,191.947861 241.025604,210.923080 
	C241.050461,215.200928 238.975891,216.882767 234.880142,216.856506 
	C223.559753,216.783905 212.238693,216.811157 200.463654,216.343872 
	C200.888016,213.779175 201.474548,211.481674 202.691589,209.589798 
	C212.138199,194.905167 221.605240,180.231201 231.300858,165.710800 
	C234.084274,161.542282 237.636536,157.887131 240.836273,153.996597 
z"/>
<path fill="#289DE7" opacity="1.000000" stroke="none" 
	d="
M240.905319,153.532684 
	C237.636536,157.887131 234.084274,161.542282 231.300858,165.710800 
	C221.605240,180.231201 212.138199,194.905167 202.691589,209.589798 
	C201.474548,211.481674 200.888016,213.779175 200.003143,216.251404 
	C194.635941,216.674408 189.275040,216.734787 183.453598,216.705444 
	C185.315689,212.263382 187.339951,207.717819 190.011688,203.591492 
	C202.761185,183.900772 215.701508,164.333694 228.537247,144.698654 
	C231.267471,140.522186 233.768066,136.194672 236.533585,132.042740 
	C237.503738,130.586212 238.951279,129.447678 240.507751,128.081924 
	C240.881241,136.356201 240.927795,144.712494 240.905319,153.532684 
z"/>
<path fill="#16C0D9" opacity="1.000000" stroke="none" 
	d="
M190.998627,79.165359 
	C195.690948,79.118179 200.383270,79.070992 205.513184,79.454208 
	C205.043579,81.800728 204.340256,83.849152 203.196350,85.611626 
	C195.375565,97.661575 187.415558,109.621338 179.627731,121.692299 
	C178.417969,123.567413 177.858658,125.862198 176.709198,128.151962 
	C168.835098,131.341339 166.794266,137.391891 167.016052,145.034241 
	C165.427322,146.695236 163.983307,148.069641 162.908722,149.689178 
	C157.988388,157.104797 153.232986,164.630371 148.267609,172.015106 
	C147.227539,173.561935 145.550827,174.680710 144.097046,175.532990 
	C144.073364,166.712280 144.120163,158.355301 144.492096,149.917786 
	C146.423080,148.229889 148.355453,146.838623 149.584335,144.981766 
	C161.921066,126.341064 174.197464,107.659615 186.339478,88.891724 
	C188.276337,85.897919 189.464386,82.419647 190.998627,79.165359 
z"/>
<path fill="#13C7D6" opacity="1.000000" stroke="none" 
	d="
M190.536346,79.094734 
	C189.464386,82.419647 188.276337,85.897919 186.339478,88.891724 
	C174.197464,107.659615 161.921066,126.341064 149.584335,144.981766 
	C148.355453,146.838623 146.423080,148.229889 144.421768,149.453903 
	C144.072647,141.380005 144.118958,133.689438 144.472839,125.886459 
	C148.963150,119.860756 153.355621,114.082840 157.280090,108.002838 
	C163.355988,98.589684 169.112396,88.970306 175.004288,79.438377 
	C180.027542,79.300293 185.050797,79.162201 190.536346,79.094734 
z"/>
<path fill="#1EB1DE" opacity="1.000000" stroke="none" 
	d="
M147.997498,223.814697 
	C141.923645,221.805222 135.849808,219.795731 129.440201,217.266220 
	C130.084579,214.442749 131.064713,212.139297 132.441101,209.836945 
	C136.430069,210.846924 140.022781,211.855835 144.166809,213.019562 
	C144.166809,208.817932 144.166809,204.907150 144.492310,200.915497 
	C147.341980,197.624725 150.065384,194.550125 152.354004,191.180267 
	C160.082825,179.800049 167.657349,168.315033 175.585281,157.011597 
	C178.910294,159.804535 181.940918,162.455994 184.898254,165.441071 
	C176.336182,178.905182 167.797119,192.003525 159.380859,205.180298 
	C155.463577,211.313309 151.784531,217.598495 147.997498,223.814697 
z"/>
<path fill="#00EEC8" opacity="1.000000" stroke="none" 
	d="
M61.164513,145.999878 
	C61.110607,125.595284 61.061436,105.190666 60.998890,84.786102 
	C60.985954,80.566551 63.157555,78.938080 67.249504,78.967407 
	C80.522491,79.062508 93.796494,79.015549 107.510788,79.450310 
	C106.966377,82.454887 105.981293,85.032448 104.535736,87.701248 
	C93.017082,87.792488 81.958900,87.792488 70.493484,87.792488 
	C70.493484,90.510468 70.506859,92.644371 70.491333,94.778061 
	C70.386482,109.186920 70.275513,123.595734 69.821594,138.071609 
	C66.705956,140.759064 63.935234,143.379471 61.164513,145.999878 
z"/>
<path fill="#1DB3DD" opacity="1.000000" stroke="none" 
	d="
M219.998566,79.164360 
	C225.024246,79.117752 230.049927,79.071152 235.513123,79.458069 
	C235.124863,81.680779 234.502914,83.602325 233.440765,85.238007 
	C225.561035,97.372620 217.548782,109.421333 209.701111,121.576424 
	C208.479584,123.468407 207.883865,125.764420 206.581711,127.918991 
	C200.268509,127.463356 196.064987,130.517349 192.952515,134.277115 
	C191.131332,132.760422 189.501266,131.402893 188.163147,129.860352 
	C197.190109,116.349754 205.995728,103.069572 214.609756,89.666260 
	C216.726959,86.371887 218.219086,82.675781 219.998566,79.164360 
z"/>
<path fill="#21AAE1" opacity="1.000000" stroke="none" 
	d="
M148.435165,223.894821 
	C151.784531,217.598495 155.463577,211.313309 159.380859,205.180298 
	C167.797119,192.003525 176.336182,178.905182 185.212341,165.559631 
	C187.802948,167.776596 190.006226,170.208679 192.196838,172.626785 
	C193.304306,171.775467 194.058838,171.195450 194.813385,170.615417 
	C192.497986,175.305664 190.540054,180.217865 187.794098,184.640793 
	C181.740631,194.391083 175.261749,203.876587 169.032837,213.519455 
	C168.152451,214.882385 167.700134,216.521835 167.024048,218.387375 
	C160.851395,220.121735 155.866226,225.525940 148.435165,223.894821 
z"/>
<path fill="#20ABE0" opacity="1.000000" stroke="none" 
	d="
M206.998779,127.873604 
	C207.883865,125.764420 208.479584,123.468407 209.701111,121.576424 
	C217.548782,109.421333 225.561035,97.372620 233.440765,85.238007 
	C234.502914,83.602325 235.124863,81.680779 235.974731,79.532448 
	C239.936951,79.096634 240.989136,81.559372 240.994354,84.896614 
	C241.003311,90.621338 240.983490,96.346107 240.905762,102.534683 
	C239.641434,104.048012 238.159210,104.903450 237.299606,106.178612 
	C231.858841,114.249496 226.598053,122.441612 221.171951,130.522598 
	C220.089478,132.134705 218.549149,133.439392 216.729919,134.950409 
	C213.159515,132.634537 210.079147,130.254074 206.998779,127.873604 
z"/>
<path fill="#19BADB" opacity="1.000000" stroke="none" 
	d="
M219.538559,79.094238 
	C218.219086,82.675781 216.726959,86.371887 214.609756,89.666260 
	C205.995728,103.069572 197.190109,116.349754 187.796295,129.797775 
	C183.757828,129.267792 180.378204,128.615356 176.998566,127.962914 
	C177.858658,125.862198 178.417969,123.567413 179.627731,121.692299 
	C187.415558,109.621338 195.375565,97.661575 203.196350,85.611626 
	C204.340256,83.849152 205.043579,81.800728 205.974518,79.524933 
	C210.358368,79.118202 214.718460,79.071159 219.538559,79.094238 
z"/>
<path fill="#0FCED2" opacity="1.000000" stroke="none" 
	d="
M174.596100,79.388611 
	C169.112396,88.970306 163.355988,98.589684 157.280090,108.002838 
	C153.355621,114.082840 148.963150,119.860756 144.402084,125.422585 
	C144.014496,116.611328 144.072250,108.150558 143.950943,99.692368 
	C143.918808,97.451469 143.335632,95.218483 143.073822,92.638542 
	C144.463867,89.743294 145.785553,87.191368 147.107239,84.639435 
	C148.318512,85.451195 149.529770,86.262955 150.980591,87.235260 
	C157.709305,81.761261 165.778275,80.029900 174.596100,79.388611 
z"/>
<path fill="#05E5CC" opacity="1.000000" stroke="none" 
	d="
M61.090912,146.463318 
	C63.935234,143.379471 66.705956,140.759064 69.953598,138.523941 
	C70.340088,152.939301 70.249657,166.969391 69.809509,181.064880 
	C68.107773,182.479477 66.781822,183.856140 65.396332,185.170029 
	C64.017967,186.477188 62.579788,187.721237 61.167839,188.992966 
	C61.117668,174.970901 61.067493,160.948822 61.090912,146.463318 
z"/>
<path fill="#0ADAD0" opacity="1.000000" stroke="none" 
	d="
M61.093769,189.457031 
	C62.579788,187.721237 64.017967,186.477188 65.396332,185.170029 
	C66.781822,183.856140 68.107773,182.479477 69.941422,181.517883 
	C70.444839,189.396179 70.595871,196.889893 70.421371,204.376053 
	C70.356529,207.158203 71.157860,208.401932 74.012283,208.443863 
	C73.794685,210.062729 73.532082,211.341278 73.192825,213.083588 
	C73.021660,214.166962 72.927155,214.786560 72.585571,215.413315 
	C71.866661,215.845795 71.394836,216.271118 70.923012,216.696442 
	C61.497204,217.075623 61.001602,216.610229 61.001823,207.319489 
	C61.001957,201.520020 61.013355,195.720551 61.093769,189.457031 
z"/>
<path fill="#13C7D6" opacity="1.000000" stroke="none" 
	d="
M72.832649,215.406158 
	C72.927155,214.786560 73.021660,214.166962 73.467003,213.020554 
	C74.556931,211.027496 75.296028,209.561234 76.499817,208.051895 
	C85.643501,208.061066 94.322502,208.113327 102.978058,208.522003 
	C101.967705,211.456711 100.980789,214.035004 99.993881,216.613297 
	C91.328423,216.681961 82.662964,216.750626 73.527634,216.539307 
	C72.995697,215.971527 72.920662,215.687134 72.832649,215.406158 
z"/>
<path fill="#16C0D9" opacity="1.000000" stroke="none" 
	d="
M100.454582,216.706085 
	C100.980789,214.035004 101.967705,211.456711 103.441559,208.450150 
	C111.948967,208.365738 119.969429,208.709610 127.933243,209.403183 
	C126.914146,212.147156 125.951698,214.541443 124.989258,216.935699 
	C116.964600,216.890106 108.939949,216.844498 100.454582,216.706085 
z"/>
<path fill="#05E5CC" opacity="1.000000" stroke="none" 
	d="
M104.996201,87.610008 
	C105.981293,85.032448 106.966377,82.454887 107.974487,79.521545 
	C116.023872,79.406097 124.050247,79.646423 132.464264,80.330048 
	C131.561615,83.138412 130.271286,85.503479 128.516037,87.917412 
	C120.366135,87.847511 112.681168,87.728760 104.996201,87.610008 
z"/>
<path fill="#07CDBE" opacity="1.000000" stroke="none" 
	d="
M128.980972,87.868553 
	C130.271286,85.503479 131.561615,83.138412 132.916992,80.441414 
	C137.542923,81.450516 142.103775,82.791542 146.885956,84.386009 
	C145.785553,87.191368 144.463867,89.743294 142.726685,92.554504 
	C137.867783,91.165382 133.424377,89.516968 128.980972,87.868553 
z"/>
<path fill="#15ABC5" opacity="1.000000" stroke="none" 
	d="
M125.313828,217.051682 
	C125.951698,214.541443 126.914146,212.147156 128.285309,209.339783 
	C129.810974,209.229752 130.927902,209.532806 132.044846,209.835861 
	C131.064713,212.139297 130.084579,214.442749 129.083801,217.078751 
	C127.921577,217.330093 126.779984,217.248871 125.313828,217.051682 
z"/>
<path fill="#09ABA5" opacity="1.000000" stroke="none" 
	d="
M72.585571,215.413315 
	C72.920662,215.687134 72.995697,215.971527 73.066849,216.483505 
	C72.593834,216.773315 72.111740,216.838959 71.276321,216.800537 
	C71.394836,216.271118 71.866661,215.845795 72.585571,215.413315 
z"/>
<path fill="#000203" opacity="1.000000" stroke="none" 
	d="
M176.709198,128.151962 
	C180.378204,128.615356 183.757828,129.267792 187.504333,129.982803 
	C189.501266,131.402893 191.131332,132.760422 192.952515,134.277115 
	C196.064987,130.517349 200.268509,127.463356 206.581711,127.918991 
	C210.079147,130.254074 213.159515,132.634537 216.508606,135.240021 
	C220.281906,146.511032 213.653809,153.209229 206.393784,159.622910 
	C203.056778,162.570908 199.683304,165.477615 195.900879,168.743881 
	C195.341354,169.386749 195.207291,169.688782 195.073242,169.990829 
	C195.073242,169.990829 194.825058,170.253937 194.819214,170.434677 
	C194.058838,171.195450 193.304306,171.775467 192.196838,172.626785 
	C190.006226,170.208679 187.802948,167.776596 185.285614,165.225983 
	C181.940918,162.455994 178.910294,159.804535 175.440643,156.701782 
	C172.444702,152.453827 169.887802,148.657181 167.330917,144.860550 
	C166.794266,137.391891 168.835098,131.341339 176.709198,128.151962 
z"/>
<path fill="#21AAE1" opacity="1.000000" stroke="none" 
	d="
M195.249115,169.843918 
	C195.207291,169.688782 195.341354,169.386749 195.734894,169.032990 
	C195.836212,169.244995 195.646423,169.483582 195.249115,169.843918 
z"/>
<path fill="#000101" opacity="1.000000" stroke="none" 
	d="
M132.441101,209.836945 
	C130.927902,209.532806 129.810974,209.229752 128.341965,208.990082 
	C119.969429,208.709610 111.948967,208.365738 103.464996,208.093719 
	C94.322502,208.113327 85.643501,208.061066 76.157730,207.973083 
	C74.889725,207.992752 74.428497,208.048141 73.967262,208.103531 
	C71.157860,208.401932 70.356529,207.158203 70.421371,204.376053 
	C70.595871,196.889893 70.444839,189.396179 70.291122,181.452454 
	C70.249657,166.969391 70.340088,152.939301 70.298523,138.456894 
	C70.275513,123.595734 70.386482,109.186920 70.491333,94.778061 
	C70.506859,92.644371 70.493484,90.510468 70.493484,87.792488 
	C81.958900,87.792488 93.017082,87.792488 104.535736,87.701248 
	C112.681168,87.728760 120.366135,87.847511 128.516037,87.917412 
	C133.424377,89.516968 137.867783,91.165382 142.658325,92.897827 
	C143.335632,95.218483 143.918808,97.451469 143.950943,99.692368 
	C144.072250,108.150558 144.014496,116.611328 144.094513,125.535004 
	C144.118958,133.689438 144.072647,141.380005 144.096649,149.534454 
	C144.120163,158.355301 144.073364,166.712280 144.025299,175.997086 
	C144.071609,184.948746 144.119217,192.972565 144.166809,200.996384 
	C144.166809,204.907150 144.166809,208.817932 144.166809,213.019562 
	C140.022781,211.855835 136.430069,210.846924 132.441101,209.836945 
M125.561012,173.637360 
	C129.126892,173.754883 127.481880,171.444290 127.375748,169.066483 
	C127.056129,168.735184 126.737556,168.115311 126.416748,168.114151 
	C113.040771,168.065674 99.664597,168.072601 85.967262,168.072601 
	C86.070511,170.147018 86.148262,171.709259 86.229019,173.331940 
	C99.441948,173.331940 112.201340,173.331940 125.561012,173.637360 
M108.499329,145.172424 
	C101.071945,145.172424 93.644562,145.172424 85.897942,145.172424 
	C86.072525,147.456696 86.192223,149.022827 86.309998,150.563873 
	C100.163528,150.563873 113.588799,150.563873 127.177734,150.563873 
	C127.177734,148.720444 127.177734,147.148483 127.177734,145.173111 
	C121.095444,145.173111 115.297119,145.173111 108.499329,145.172424 
M106.499268,139.499069 
	C113.307838,139.499069 120.116402,139.499069 127.186325,139.499069 
	C127.186325,137.471832 127.186325,135.893066 127.186325,134.116547 
	C113.390839,134.116547 99.822418,134.116547 85.969292,134.116547 
	C86.065414,135.998184 86.145897,137.573654 86.244293,139.499908 
	C92.885376,139.499908 99.192665,139.499908 106.499268,139.499069 
M86.689102,156.724365 
	C86.442375,158.401169 86.195656,160.077972 85.941368,161.806198 
	C100.120949,161.806198 113.671516,161.806198 127.540604,161.806198 
	C127.374725,159.844208 127.242966,158.285843 127.095032,156.536118 
	C113.589722,156.536118 100.615540,156.536118 86.689102,156.724365 
M104.020851,123.691589 
	C104.020851,125.119102 104.020851,126.546616 104.020851,127.888550 
	C112.080589,127.888550 119.628868,127.888550 127.277954,127.888550 
	C127.277954,125.985168 127.277954,124.416847 127.277954,122.883759 
	C119.451347,122.883759 111.902527,122.883759 104.020851,123.691589 
z"/>
<path fill="#19BADB" opacity="1.000000" stroke="none" 
	d="
M144.492310,200.915497 
	C144.119217,192.972565 144.071609,184.948746 144.095749,176.460831 
	C145.550827,174.680710 147.227539,173.561935 148.267609,172.015106 
	C153.232986,164.630371 157.988388,157.104797 162.908722,149.689178 
	C163.983307,148.069641 165.427322,146.695236 167.016052,145.034241 
	C169.887802,148.657181 172.444702,152.453827 175.146240,156.560272 
	C167.657349,168.315033 160.082825,179.800049 152.354004,191.180267 
	C150.065384,194.550125 147.341980,197.624725 144.492310,200.915497 
z"/>
<path fill="#09ABA5" opacity="1.000000" stroke="none" 
	d="
M74.012283,208.443863 
	C74.428497,208.048141 74.889725,207.992752 75.693039,208.016174 
	C75.296028,209.561234 74.556931,211.027496 73.543655,212.556778 
	C73.532082,211.341278 73.794685,210.062729 74.012283,208.443863 
z"/>
<path fill="#0ADAD0" opacity="1.000000" stroke="none" 
	d="
M108.999062,145.172760 
	C115.297119,145.173111 121.095444,145.173111 127.177734,145.173111 
	C127.177734,147.148483 127.177734,148.720444 127.177734,150.563873 
	C113.588799,150.563873 100.163528,150.563873 86.309998,150.563873 
	C86.192223,149.022827 86.072525,147.456696 85.897942,145.172424 
	C93.644562,145.172424 101.071945,145.172424 108.999062,145.172760 
z"/>
<path fill="#0ADAD0" opacity="1.000000" stroke="none" 
	d="
M105.999611,139.499481 
	C99.192665,139.499908 92.885376,139.499908 86.244293,139.499908 
	C86.145897,137.573654 86.065414,135.998184 85.969292,134.116547 
	C99.822418,134.116547 113.390839,134.116547 127.186325,134.116547 
	C127.186325,135.893066 127.186325,137.471832 127.186325,139.499069 
	C120.116402,139.499069 113.307838,139.499069 105.999611,139.499481 
z"/>
<path fill="#0FCED2" opacity="1.000000" stroke="none" 
	d="
M87.165230,156.630249 
	C100.615540,156.536118 113.589722,156.536118 127.095032,156.536118 
	C127.242966,158.285843 127.374725,159.844208 127.540604,161.806198 
	C113.671516,161.806198 100.120949,161.806198 85.941368,161.806198 
	C86.195656,160.077972 86.442375,158.401169 87.165230,156.630249 
z"/>
<path fill="#0FCED2" opacity="1.000000" stroke="none" 
	d="
M124.960739,173.331940 
	C112.201340,173.331940 99.441948,173.331940 86.229019,173.331940 
	C86.148262,171.709259 86.070511,170.147018 85.967262,168.072601 
	C99.664597,168.072601 113.040771,168.065674 126.416748,168.114151 
	C126.737556,168.115311 127.056129,168.735184 127.103294,169.622574 
	C126.207474,171.229752 125.584106,172.280853 124.960739,173.331940 
z"/>
<path fill="#07CDBE" opacity="1.000000" stroke="none" 
	d="
M104.187279,123.287674 
	C111.902527,122.883759 119.451347,122.883759 127.277954,122.883759 
	C127.277954,124.416847 127.277954,125.985168 127.277954,127.888550 
	C119.628868,127.888550 112.080589,127.888550 104.020851,127.888550 
	C104.020851,126.546616 104.020851,125.119102 104.187279,123.287674 
z"/>
<path fill="#0D969E" opacity="1.000000" stroke="none" 
	d="
M125.260880,173.484650 
	C125.584106,172.280853 126.207474,171.229752 127.082626,170.005096 
	C127.481880,171.444290 129.126892,173.754883 125.260880,173.484650 
z"/>
</svg>